<svg width="601" height="530" viewBox="0 0 601 530" fill="none" xmlns="http://www.w3.org/2000/svg">
<g clip-path="url(#clip0)">
<path d="M233.196 13.648L235.559 9.99991C234.858 8.06617 234.049 6.17346 233.135 4.33079L231.606 5.56364L232.816 3.69582C231.663 1.42852 230.756 0 230.756 0C230.756 0 226.016 7.46023 224.433 15.3589L227.466 20.0403L224.108 17.3318C223.989 18.2519 223.927 19.1786 223.924 20.1064C223.924 29.4611 226.983 37.0446 230.756 37.0446C234.529 37.0446 237.588 29.4611 237.588 20.1064C237.517 17.1302 236.99 14.1824 236.025 11.3657L233.196 13.648Z" fill="#E6E6E6"/>
<path d="M249.923 21.7579L254.177 20.8475C255.05 18.9852 255.818 17.0751 256.476 15.1264L254.522 14.9188L256.7 14.4527C257.49 12.035 257.86 10.384 257.86 10.384C257.86 10.384 249.227 12.3117 242.516 16.7785L241.346 22.2306L240.89 17.9442C240.154 18.5104 239.454 19.1222 238.795 19.7761C232.173 26.3909 228.967 33.9136 231.635 36.5785C234.303 39.2434 241.834 36.0415 248.457 29.4267C250.514 27.2722 252.228 24.8155 253.539 22.1422L249.923 21.7579Z" fill="#E6E6E6"/>
<path d="M251.477 57.9559C241.613 58.5861 230.866 57.9192 219.432 57.9559V31.8083C229.507 33.375 240.251 33.2141 251.477 31.8083V57.9559Z" fill="#E6E6E6"/>
<path d="M322.043 78.3445L323.585 75.9655C323.127 74.7044 322.6 73.4701 322.003 72.2684L321.007 73.0724L321.796 71.8543C321.044 70.3757 320.452 69.4441 320.452 69.4441C318.554 72.5427 317.162 75.9239 316.329 79.4603L318.306 82.5132L316.117 80.7469C316.039 81.3469 315.999 81.9513 315.997 82.5563C315.997 88.6569 317.992 93.6024 320.452 93.6024C322.913 93.6024 324.908 88.6569 324.908 82.5563C324.861 80.6154 324.518 78.693 323.888 76.8561L322.043 78.3445Z" fill="#E6E6E6"/>
<path d="M332.952 83.6334L335.726 83.0396C336.295 81.8251 336.796 80.5795 337.225 79.3087L335.951 79.1733L337.372 78.8693C337.886 77.2926 338.128 76.2159 338.128 76.2159C334.591 77.066 331.214 78.4737 328.121 80.386L327.358 83.9416L327.061 81.1463C326.581 81.5155 326.125 81.9145 325.695 82.3409C321.376 86.6547 319.286 91.5605 321.025 93.2984C322.765 95.0364 327.677 92.9482 331.996 88.6345C333.337 87.2294 334.455 85.6273 335.31 83.8839L332.952 83.6334Z" fill="#E6E6E6"/>
<path d="M333.965 107.239C327.533 107.65 320.524 107.216 313.067 107.239V90.1876C319.999 91.1575 327.033 91.1575 333.965 90.1876V107.239Z" fill="#E6E6E6"/>
<path d="M329.993 157.774C324.313 158.137 318.124 157.753 311.54 157.774V142.717C317.661 143.574 323.872 143.574 329.993 142.717V157.774Z" fill="#E6E6E6"/>
<path d="M362.403 56.1171H114.096V63.0451H362.403V56.1171Z" fill="#E6E6E6"/>
<path d="M362.403 105.306H114.096V112.234H362.403V105.306Z" fill="#E6E6E6"/>
<path d="M362.403 154.495H114.096V161.423H362.403V154.495Z" fill="#E6E6E6"/>
<path d="M320.788 148.26C328.449 148.26 334.66 142.056 334.66 134.404C334.66 126.751 328.449 120.548 320.788 120.548C313.126 120.548 306.916 126.751 306.916 134.404C306.916 142.056 313.126 148.26 320.788 148.26Z" fill="#E6E6E6"/>
<path d="M320.788 145.489C326.917 145.489 331.885 140.526 331.885 134.404C331.885 128.282 326.917 123.319 320.788 123.319C314.659 123.319 309.69 128.282 309.69 134.404C309.69 140.526 314.659 145.489 320.788 145.489Z" fill="white"/>
<path d="M320.788 137.175C322.32 137.175 323.562 135.934 323.562 134.404C323.562 132.873 322.32 131.633 320.788 131.633C319.255 131.633 318.013 132.873 318.013 134.404C318.013 135.934 319.255 137.175 320.788 137.175Z" fill="#E6E6E6"/>
<path d="M330.498 135.097V133.711H319.4V135.097H330.498Z" fill="#E6E6E6"/>
<path d="M320.094 135.789H321.481V124.704H320.094V135.789Z" fill="#E6E6E6"/>
<path d="M240.578 71.5088H231.4V107.798H240.578V71.5088Z" fill="#E6E6E6"/>
<path d="M240.578 77.2388H231.4V81.4407H240.578V77.2388Z" fill="#CCCCCC"/>
<path d="M240.578 95.5745H231.4V99.7764H240.578V95.5745Z" fill="#CCCCCC"/>
<path d="M226.428 71.5088H217.25V107.798H226.428V71.5088Z" fill="#E6E6E6"/>
<path d="M226.428 77.2388H217.25V81.4407H226.428V77.2388Z" fill="#CCCCCC"/>
<path d="M226.428 95.5745H217.25V99.7764H226.428V95.5745Z" fill="#CCCCCC"/>
<path d="M248.487 71.3588L240.261 75.4265L256.381 107.949L264.606 103.881L248.487 71.3588Z" fill="#E6E6E6"/>
<path d="M251.032 76.4938L242.806 80.5615L244.673 84.3272L252.898 80.2595L251.032 76.4938Z" fill="#CCCCCC"/>
<path d="M259.177 92.9259L250.951 96.9937L252.818 100.759L261.043 96.6917L259.177 92.9259Z" fill="#CCCCCC"/>
<path d="M158.734 120.698H149.556V156.987H158.734V120.698Z" fill="#E6E6E6"/>
<path d="M158.734 126.428H149.556V130.63H158.734V126.428Z" fill="#CCCCCC"/>
<path d="M158.734 144.764H149.556V148.965H158.734V144.764Z" fill="#CCCCCC"/>
<path d="M144.584 120.698H135.406V156.987H144.584V120.698Z" fill="#E6E6E6"/>
<path d="M144.584 126.428H135.406V130.63H144.584V126.428Z" fill="#CCCCCC"/>
<path d="M144.584 144.764H135.406V148.965H144.584V144.764Z" fill="#CCCCCC"/>
<path d="M166.642 120.548L158.417 124.615L174.537 157.137L182.762 153.07L166.642 120.548Z" fill="#E6E6E6"/>
<path d="M169.188 125.683L160.962 129.75L162.829 133.516L171.054 129.448L169.188 125.683Z" fill="#CCCCCC"/>
<path d="M177.332 142.115L169.107 146.183L170.973 149.948L179.199 145.881L177.332 142.115Z" fill="#CCCCCC"/>
<path d="M244.74 120.698H235.562V156.987H244.74V120.698Z" fill="#E6E6E6"/>
<path d="M244.74 126.428H235.562V130.63H244.74V126.428Z" fill="#CCCCCC"/>
<path d="M244.74 144.764H235.562V148.965H244.74V144.764Z" fill="#CCCCCC"/>
<path d="M230.59 120.698H221.412V156.987H230.59V120.698Z" fill="#E6E6E6"/>
<path d="M230.59 126.428H221.412V130.63H230.59V126.428Z" fill="#CCCCCC"/>
<path d="M230.59 144.764H221.412V148.965H230.59V144.764Z" fill="#CCCCCC"/>
<path d="M252.648 120.548L244.423 124.615L260.543 157.137L268.768 153.07L252.648 120.548Z" fill="#E6E6E6"/>
<path d="M255.194 125.683L246.968 129.75L248.835 133.516L257.06 129.448L255.194 125.683Z" fill="#CCCCCC"/>
<path d="M263.338 142.115L255.113 146.183L256.979 149.948L265.205 145.881L263.338 142.115Z" fill="#CCCCCC"/>
<path d="M342.983 22.2108H306.504V58.6482H342.983V22.2108Z" fill="#E6E6E6"/>
<path d="M335.687 29.4983H313.799V51.3607H335.687V29.4983Z" fill="#CCCCCC"/>
<path d="M320.135 36.8368L324.776 44.8657L329.417 52.8947H320.135H310.853L315.494 44.8657L320.135 36.8368Z" fill="#E6E6E6"/>
<path d="M328.199 38.371L332.84 46.3999L337.481 54.4288H328.199H318.917L323.558 46.3999L328.199 38.371Z" fill="#E6E6E6"/>
<path d="M331.463 36.0186C332.947 36.0186 334.151 34.8166 334.151 33.3338C334.151 31.851 332.947 30.6489 331.463 30.6489C329.979 30.6489 328.775 31.851 328.775 33.3338C328.775 34.8166 329.979 36.0186 331.463 36.0186Z" fill="#E6E6E6"/>
<path d="M158.486 22.2108H122.007V58.6482H158.486V22.2108Z" fill="#E6E6E6"/>
<path d="M151.191 29.4983H129.303V51.3607H151.191V29.4983Z" fill="#CCCCCC"/>
<path d="M135.639 36.8368L140.28 44.8657L144.921 52.8947H135.639H126.357L130.998 44.8657L135.639 36.8368Z" fill="#E6E6E6"/>
<path d="M143.703 38.371L148.344 46.3999L152.984 54.4288H143.703H134.421L139.062 46.3999L143.703 38.371Z" fill="#E6E6E6"/>
<path d="M146.967 36.0186C148.451 36.0186 149.655 34.8166 149.655 33.3338C149.655 31.851 148.451 30.6489 146.967 30.6489C145.482 30.6489 144.279 31.851 144.279 33.3338C144.279 34.8166 145.482 36.0186 146.967 36.0186Z" fill="#E6E6E6"/>
<path d="M48.6996 270.678L51.0628 267.03C50.362 265.096 49.5525 263.203 48.6383 261.361L47.1102 262.594L48.3202 260.726C47.167 258.458 46.2597 257.03 46.2597 257.03C46.2597 257.03 41.5201 264.49 39.9367 272.389L42.9692 277.07L39.612 274.362C39.4925 275.282 39.431 276.208 39.4279 277.136C39.4279 286.491 42.4866 294.074 46.2597 294.074C50.0328 294.074 53.0915 286.491 53.0915 277.136C53.0207 274.16 52.4936 271.212 51.5286 268.396L48.6996 270.678Z" fill="#F2994A"/>
<path d="M65.427 278.788L69.6806 277.877C70.5539 276.015 71.3214 274.105 71.9794 272.156L70.0261 271.949L72.204 271.483C72.9936 269.065 73.3633 267.414 73.3633 267.414C73.3633 267.414 64.7307 269.342 58.0195 273.808L56.8498 279.261L56.3933 274.974C55.6574 275.54 54.9578 276.152 54.2988 276.806C47.6765 283.421 44.4709 290.944 47.1389 293.608C49.8069 296.273 57.3382 293.071 63.9605 286.457C66.0174 284.302 67.7315 281.845 69.043 279.172L65.427 278.788Z" fill="#F2994A"/>
<path d="M66.9806 314.986C57.1169 315.616 46.3694 314.949 34.9359 314.986V288.838C45.0107 290.405 55.7547 290.244 66.9806 288.838V314.986Z" fill="#3F3D56"/>
<path d="M474.419 323.193H341.249V495.701H474.419V323.193Z" fill="#E6E6E6"/>
<path d="M70.0531 332.199H63.1171V495.701H70.0531V332.199Z" fill="#E6E6E6"/>
<path d="M474.419 311.415H0V325.271H474.419V311.415Z" fill="#E6E6E6"/>
<path d="M73.5211 325.271H59.6492V339.127H73.5211V325.271Z" fill="#E6E6E6"/>
<path d="M418.325 333.238L417.544 336.356H398.123L396.953 333.238H347.491V365.107H468.176V333.238H418.325Z" fill="#3F3D56"/>
<path d="M418.325 373.421L417.544 376.538H398.123L396.953 373.421H347.491V405.29H468.176V373.421H418.325Z" fill="#3F3D56"/>
<path d="M418.325 413.604L417.544 416.721H398.123L396.953 413.604H347.491V445.472H468.176V413.604H418.325Z" fill="#3F3D56"/>
<path d="M418.325 453.786L417.544 456.904H398.123L396.953 453.786H347.491V485.655H468.176V453.786H418.325Z" fill="#3F3D56"/>
<path d="M257.324 309.336H216.402L217.789 291.324H255.936L257.324 309.336Z" fill="#E6E6E6"/>
<path d="M260.098 307.258H214.321V311.415H260.098V307.258Z" fill="#E6E6E6"/>
<path d="M315.239 175.279H158.833C157.73 175.279 156.671 175.717 155.891 176.497C155.11 177.276 154.672 178.334 154.672 179.436V274.696H319.4V179.436C319.4 178.334 318.962 177.276 318.182 176.497C317.401 175.717 316.343 175.279 315.239 175.279Z" fill="#3F3D56"/>
<path d="M154.672 274.696V290.284C154.672 291.387 155.11 292.444 155.891 293.224C156.671 294.003 157.73 294.441 158.833 294.441H315.239C316.343 294.441 317.401 294.003 318.182 293.224C318.962 292.444 319.4 291.387 319.4 290.284V274.696H154.672Z" fill="#E6E6E6"/>
<path d="M311.424 183.939H162.995V267.076H311.424V183.939Z" fill="white"/>
<path d="M237.209 288.552C239.508 288.552 241.371 286.691 241.371 284.396C241.371 282.1 239.508 280.239 237.209 280.239C234.911 280.239 233.048 282.1 233.048 284.396C233.048 286.691 234.911 288.552 237.209 288.552Z" fill="#3F3D56"/>
<path d="M589.209 494.661C574.051 495.63 557.534 494.605 539.964 494.661V454.479C555.446 456.886 571.957 456.639 589.209 454.479V494.661Z" fill="#3F3D56"/>
<path d="M566.32 458.087H562.159L563.546 376.885H564.933L566.32 458.087Z" fill="#3F3D56"/>
<path d="M585.047 458.636H580.886L582.273 377.434H583.66L585.047 458.636Z" fill="#3F3D56"/>
<path d="M549.674 458.636H545.512L546.9 377.434H548.286L549.674 458.636Z" fill="#3F3D56"/>
<path d="M569.788 324.925L576.506 314.554C574.514 309.057 572.213 303.677 569.614 298.439L565.27 301.943L568.71 296.634C565.432 290.189 562.852 286.128 562.852 286.128C562.852 286.128 549.379 307.335 544.878 329.788L553.499 343.096L543.955 335.396C543.615 338.012 543.44 340.646 543.432 343.284C543.432 369.876 552.126 391.434 562.852 391.434C573.578 391.434 582.273 369.876 582.273 343.284C582.273 335.04 580.406 326.415 577.83 318.437L569.788 324.925Z" fill="#E6E6E6"/>
<path d="M588.515 326.31L595.233 315.94C593.241 310.443 590.94 305.062 588.341 299.824L583.997 303.329L587.437 298.019C584.159 291.574 581.579 287.513 581.579 287.513C581.579 287.513 568.106 308.72 563.605 331.174L572.226 344.481L562.682 336.782C562.342 339.398 562.168 342.032 562.159 344.669C562.159 371.262 570.854 392.819 581.579 392.819C592.305 392.819 601 371.262 601 344.669C601 336.425 599.133 327.801 596.557 319.822L588.515 326.31Z" fill="#F2994A"/>
<path d="M553.142 326.31L559.86 315.94C557.868 310.443 555.567 305.062 552.968 299.824L548.624 303.329L552.063 298.019C548.785 291.574 546.206 287.513 546.206 287.513C546.206 287.513 532.733 308.72 528.232 331.174L536.852 344.481L527.309 336.782C526.969 339.398 526.794 342.032 526.785 344.669C526.785 371.262 535.48 392.819 546.206 392.819C556.932 392.819 565.627 371.262 565.627 344.669C565.627 336.425 563.759 327.801 561.184 319.822L553.142 326.31Z" fill="#F2994A"/>
<path d="M251.149 207.406H211.128V209.701H251.149V207.406Z" fill="#3F3D56"/>
<path d="M272.93 215.777H211.128V218.072H272.93V215.777Z" fill="#F2994A"/>
<path d="M261.495 223.663H211.128V225.958H261.495V223.663Z" fill="#F2994A"/>
<path d="M240.532 231.52H211.128V233.815H240.532V231.52Z" fill="#3F3D56"/>
<path d="M255.505 239.376H211.128V241.671H255.505V239.376Z" fill="#3F3D56"/>
<path d="M197.788 206.591H192.887V211.486H197.788V206.591Z" fill="#3F3D56"/>
<path d="M197.788 214.477H192.887V219.372H197.788V214.477Z" fill="#F2994A"/>
<path d="M197.788 222.363H192.887V227.258H197.788V222.363Z" fill="#F2994A"/>
<path d="M197.788 230.25H192.887V235.144H197.788V230.25Z" fill="#3F3D56"/>
<path d="M197.788 238.136H192.887V243.031H197.788V238.136Z" fill="#3F3D56"/>
<path d="M304.547 203.062H283.546C282.113 194.786 282.113 186.326 283.546 178.05H304.547C302.181 186.22 302.181 194.892 304.547 203.062Z" fill="#F2994A"/>
<path d="M151.733 253.192L143.093 251.089C139.796 251.093 136.539 250.365 133.558 248.957C130.578 247.55 127.947 245.498 125.858 242.951C123.769 240.403 122.272 237.423 121.477 234.227C120.683 231.031 120.609 227.698 121.262 224.47C121.252 216.768 124.306 209.378 129.752 203.925C135.197 198.471 142.589 195.403 150.3 195.393H150.3C158.011 195.383 165.41 198.434 170.869 203.873C176.328 209.312 179.401 216.695 179.41 224.397V224.397C184.309 241.426 168.966 257.388 151.733 253.192Z" fill="#2F2E41"/>
<path d="M161.171 256.229C172.969 256.229 182.534 246.675 182.534 234.89C182.534 223.105 172.969 213.551 161.171 213.551C149.372 213.551 139.808 223.105 139.808 234.89C139.808 246.675 149.372 256.229 161.171 256.229Z" fill="#FFB8B8"/>
<path d="M147.238 246.023C147.238 246.023 140.737 268.29 137.021 270.145C133.306 272.001 166.744 274.784 166.744 274.784C166.744 274.784 165.815 253.445 167.673 251.59C169.53 249.734 147.238 246.023 147.238 246.023Z" fill="#FFB8B8"/>
<path d="M180.676 383.333C180.676 383.333 222.473 379.622 228.046 393.538C233.619 407.455 224.331 490.026 224.331 490.026H206.683V422.299C206.683 422.299 131.436 400.934 131.436 393.512C131.436 386.09 180.676 383.333 180.676 383.333Z" fill="#2F2E41"/>
<path d="M221.545 486.315L230.833 490.026C230.833 490.026 241.979 489.098 237.335 497.448C236.005 499.872 234.146 501.965 231.894 503.571C229.643 505.177 227.058 506.256 224.331 506.726C224.331 506.726 206.683 513.22 205.754 506.726C204.826 500.231 210.399 487.242 210.399 487.242L221.545 486.315Z" fill="#2F2E41"/>
<path d="M157.455 383.333C157.455 383.333 199.253 379.622 204.826 393.538C210.399 407.455 201.11 490.026 201.11 490.026H183.463V422.299C183.463 422.299 130.049 409.941 130.049 402.519C130.049 399.032 126.409 381.311 132.823 377.578C140.063 373.364 157.455 383.333 157.455 383.333Z" fill="#2F2E41"/>
<path d="M198.324 486.315L207.612 490.026C207.612 490.026 218.758 489.098 214.114 497.448C212.785 499.872 210.925 501.965 208.674 503.571C206.422 505.177 203.837 506.256 201.11 506.726C201.11 506.726 183.463 513.22 182.534 506.726C181.605 500.231 187.178 487.242 187.178 487.242L198.324 486.315Z" fill="#2F2E41"/>
<path d="M137.95 267.362L165.863 270.392C170.171 270.86 174.221 272.676 177.434 275.58C180.648 278.483 182.86 282.327 183.756 286.562L194.609 337.872C194.609 337.872 198.324 388.899 190.893 391.682C183.463 394.466 173.246 380.549 159.313 382.405C145.381 384.26 127.269 388.435 127.269 388.435C127.269 388.435 124.392 297.099 124.018 289.628C123.269 274.694 137.95 267.362 137.95 267.362Z" fill="#575A89"/>
<path d="M204.069 385.984L215.529 392.724C215.529 392.724 236.087 389.778 235.446 396.996C234.804 404.213 212.363 402.819 212.363 402.819L198.553 394.319L204.069 385.984Z" fill="#FFB8B8"/>
<path d="M119.705 217.535C127.327 217.535 133.505 211.364 133.505 203.751C133.505 196.138 127.327 189.967 119.705 189.967C112.084 189.967 105.906 196.138 105.906 203.751C105.906 211.364 112.084 217.535 119.705 217.535Z" fill="#2F2E41"/>
<path d="M132.438 196.341C132.436 194.302 131.982 192.289 131.107 190.447C130.232 188.605 128.958 186.98 127.379 185.688C125.799 184.397 123.952 183.473 121.97 182.981C119.989 182.489 117.924 182.443 115.923 182.846C117.688 182.012 119.611 181.563 121.564 181.527C123.516 181.491 125.454 181.87 127.249 182.639C129.044 183.407 130.655 184.547 131.976 185.984C133.297 187.421 134.297 189.122 134.911 190.974C135.524 192.825 135.737 194.786 135.535 196.727C135.333 198.667 134.721 200.542 133.739 202.228C132.758 203.915 131.429 205.373 129.84 206.508C128.252 207.643 126.44 208.428 124.526 208.811C126.893 207.697 128.895 205.933 130.296 203.725C131.697 201.516 132.44 198.956 132.438 196.341Z" fill="#2F2E41"/>
<path d="M144.276 204.159L162.88 200.737L177.188 209.694C180.705 211.896 183.517 215.059 185.289 218.809C187.061 222.559 187.719 226.738 187.185 230.85L172.856 227.222L169.647 219.185L165.826 225.442L145.845 251.126L134.627 243.99L124.626 228.335L144.276 204.159Z" fill="#2F2E41"/>
<path d="M159.597 275.254L168.885 270.615C168.885 270.615 188.39 273.398 192.106 286.387C195.821 299.376 212.54 389.369 212.54 389.369L196.75 396.791L174.458 342.053L159.597 275.254Z" fill="#575A89"/>
<path opacity="0.2" d="M167.504 311.762L176.8 347.804L193.285 388.283L192.713 389.684L173.052 348.48L167.504 311.762Z" fill="black"/>
<path d="M98.1411 510.528L94.8628 509.4L126.621 415.177L131.212 416.757L98.1411 510.528Z" fill="#3F3D56"/>
<path d="M219.525 510.528L222.804 509.4L191.045 415.177L186.455 416.757L219.525 510.528Z" fill="#3F3D56"/>
<path d="M152.418 529.988L155.886 530L156.964 419.855L152.108 419.838L152.418 529.988Z" fill="#3F3D56"/>
<path d="M90.1144 359.813L99.6271 398.216C100.959 403.594 103.733 408.508 107.65 412.43C111.567 416.352 116.48 419.135 121.861 420.478H121.861C148.391 427.103 176.166 426.925 202.608 419.959L216.81 416.217C225.063 414.043 231.269 406.964 231.856 398.459C232.094 395.452 231.549 392.435 230.273 389.702C230.218 389.584 230.162 389.467 230.106 389.351C228.254 385.551 225.397 382.329 221.843 380.034C218.29 377.739 214.175 376.458 209.946 376.33L194.9 375.846L140.106 351.597C140.106 351.597 121.261 342.036 105.769 340.966C95.5377 340.259 87.6512 349.869 90.1144 359.813Z" fill="#F2994A"/>
<path d="M424.133 239.017H370.033V312.454H424.133V239.017Z" fill="#E6E6E6"/>
<path d="M417.891 247.491H376.275V303.981H417.891V247.491Z" fill="white"/>
<path d="M412.817 262.273H392.654V264.568H412.817V262.273Z" fill="#3F3D56"/>
<path d="M386.25 261.003H381.349V265.898H386.25V261.003Z" fill="#3F3D56"/>
<path d="M412.817 271.973H392.654V274.267H412.817V271.973Z" fill="#3F3D56"/>
<path d="M386.25 270.702H381.349V275.597H386.25V270.702Z" fill="#3F3D56"/>
<path d="M412.817 281.672H392.654V283.967H412.817V281.672Z" fill="#3F3D56"/>
<path d="M386.25 280.402H381.349V285.297H386.25V280.402Z" fill="#3F3D56"/>
<path d="M399.164 243.174C399.164 242.026 398.232 241.095 397.083 241.095C395.934 241.095 395.002 242.026 395.002 243.174C395.002 244.322 395.934 245.252 397.083 245.252C398.232 245.252 399.164 244.322 399.164 243.174Z" fill="#3F3D56"/>
</g>
<defs>
<clipPath id="clip0">
<rect width="601" height="530" fill="white"/>
</clipPath>
</defs>
</svg>
